[
  {
    "streams": [
      {
        "index": 0,
        "codec_name": "pcm_s16le",
        "codec_long_name": "PCM signed 16-bit little-endian",
        "codec_type": "audio",
        "codec_tag_string": "[1][0][0][0]",
        "codec_tag": "0x0001",
        "sample_fmt": "s16",
        "sample_rate": "22050",
        "channels": 1,
        "bits_per_sample": 16,
        "initial_padding": 0,
        "r_frame_rate": "0/0",
        "avg_frame_rate": "0/0",
        "time_base": "1/22050",
        "duration_ts": 66150,
        "duration": "3.000000",
        "bit_rate": "352800",
        "disposition": {
          "default": 0,
          "dub": 0,
          "original": 0,
          "comment": 0,
          "lyrics": 0,
          "karaoke": 0,
          "forced": 0,
          "hearing_impaired": 0,
          "visual_impaired": 0,
          "clean_effects": 0,
          "attached_pic": 0,
          "timed_thumbnails": 0,
          "non_diegetic": 0,
          "captions": 0,
          "descriptions": 0,
          "metadata": 0,
          "dependent": 0,
          "still_image": 0
        }
      }
    ],
    "format": {
      "filename": "./wave-files//CantinaBand3.wav",
      "nb_streams": 1,
      "nb_programs": 0,
      "nb_stream_groups": 0,
      "format_name": "wav",
      "format_long_name": "WAV / WAVE (Waveform Audio)",
      "duration": "3.000000",
      "size": "132344",
      "bit_rate": "352917",
      "probe_score": 99
    }
  },
  {
    "streams": [
      {
        "index": 0,
        "codec_name": "pcm_s16le",
        "codec_long_name": "PCM signed 16-bit little-endian",
        "codec_type": "audio",
        "codec_tag_string": "[1][0][0][0]",
        "codec_tag": "0x0001",
        "sample_fmt": "s16",
        "sample_rate": "22050",
        "channels": 1,
        "bits_per_sample": 16,
        "initial_padding": 0,
        "r_frame_rate": "0/0",
        "avg_frame_rate": "0/0",
        "time_base": "1/22050",
        "duration_ts": 1323000,
        "duration": "60.000000",
        "bit_rate": "352800",
        "disposition": {
          "default": 0,
          "dub": 0,
          "original": 0,
          "comment": 0,
          "lyrics": 0,
          "karaoke": 0,
          "forced": 0,
          "hearing_impaired": 0,
          "visual_impaired": 0,
          "clean_effects": 0,
          "attached_pic": 0,
          "timed_thumbnails": 0,
          "non_diegetic": 0,
          "captions": 0,
          "descriptions": 0,
          "metadata": 0,
          "dependent": 0,
          "still_image": 0
        }
      }
    ],
    "format": {
      "filename": "./wave-files//CantinaBand60.wav",
      "nb_streams": 1,
      "nb_programs": 0,
      "nb_stream_groups": 0,
      "format_name": "wav",
      "format_long_name": "WAV / WAVE (Waveform Audio)",
      "duration": "60.000000",
      "size": "2646044",
      "bit_rate": "352805",
      "probe_score": 99
    }
  },
  {
    "streams": [
      {
        "index": 0,
        "codec_name": "pcm_s16le",
        "codec_long_name": "PCM signed 16-bit little-endian",
        "codec_type": "audio",
        "codec_tag_string": "[1][0][0][0]",
        "codec_tag": "0x0001",
        "sample_fmt": "s16",
        "sample_rate": "22050",
        "channels": 1,
        "bits_per_sample": 16,
        "initial_padding": 0,
        "r_frame_rate": "0/0",
        "avg_frame_rate": "0/0",
        "time_base": "1/22050",
        "duration_ts": 1323000,
        "duration": "60.000000",
        "bit_rate": "352800",
        "disposition": {
          "default": 0,
          "dub": 0,
          "original": 0,
          "comment": 0,
          "lyrics": 0,
          "karaoke": 0,
          "forced": 0,
          "hearing_impaired": 0,
          "visual_impaired": 0,
          "clean_effects": 0,
          "attached_pic": 0,
          "timed_thumbnails": 0,
          "non_diegetic": 0,
          "captions": 0,
          "descriptions": 0,
          "metadata": 0,
          "dependent": 0,
          "still_image": 0
        }
      }
    ],
    "format": {
      "filename": "./wave-files//Fanfare60.wav",
      "nb_streams": 1,
      "nb_programs": 0,
      "nb_stream_groups": 0,
      "format_name": "wav",
      "format_long_name": "WAV / WAVE (Waveform Audio)",
      "duration": "60.000000",
      "size": "2646044",
      "bit_rate": "352805",
      "probe_score": 99
    }
  },
  {
    "streams": [
      {
        "index": 0,
        "codec_name": "pcm_s16le",
        "codec_long_name": "PCM signed 16-bit little-endian",
        "codec_type": "audio",
        "codec_tag_string": "[1][0][0][0]",
        "codec_tag": "0x0001",
        "sample_fmt": "s16",
        "sample_rate": "22050",
        "channels": 1,
        "bits_per_sample": 16,
        "initial_padding": 0,
        "r_frame_rate": "0/0",
        "avg_frame_rate": "0/0",
        "time_base": "1/22050",
        "duration_ts": 1323000,
        "duration": "60.000000",
        "bit_rate": "352800",
        "disposition": {
          "default": 0,
          "dub": 0,
          "original": 0,
          "comment": 0,
          "lyrics": 0,
          "karaoke": 0,
          "forced": 0,
          "hearing_impaired": 0,
          "visual_impaired": 0,
          "clean_effects": 0,
          "attached_pic": 0,
          "timed_thumbnails": 0,
          "non_diegetic": 0,
          "captions": 0,
          "descriptions": 0,
          "metadata": 0,
          "dependent": 0,
          "still_image": 0
        }
      }
    ],
    "format": {
      "filename": "./wave-files//ImperialMarch60.wav",
      "nb_streams": 1,
      "nb_programs": 0,
      "nb_stream_groups": 0,
      "format_name": "wav",
      "format_long_name": "WAV / WAVE (Waveform Audio)",
      "duration": "60.000000",
      "size": "2646044",
      "bit_rate": "352805",
      "probe_score": 99
    }
  },
  {
    "streams": [
      {
        "index": 0,
        "codec_name": "pcm_s16le",
        "codec_long_name": "PCM signed 16-bit little-endian",
        "codec_type": "audio",
        "codec_tag_string": "[1][0][0][0]",
        "codec_tag": "0x0001",
        "sample_fmt": "s16",
        "sample_rate": "22050",
        "channels": 1,
        "bits_per_sample": 16,
        "initial_padding": 0,
        "r_frame_rate": "0/0",
        "avg_frame_rate": "0/0",
        "time_base": "1/22050",
        "duration_ts": 661500,
        "duration": "30.000000",
        "bit_rate": "352800",
        "disposition": {
          "default": 0,
          "dub": 0,
          "original": 0,
          "comment": 0,
          "lyrics": 0,
          "karaoke": 0,
          "forced": 0,
          "hearing_impaired": 0,
          "visual_impaired": 0,
          "clean_effects": 0,
          "attached_pic": 0,
          "timed_thumbnails": 0,
          "non_diegetic": 0,
          "captions": 0,
          "descriptions": 0,
          "metadata": 0,
          "dependent": 0,
          "still_image": 0
        }
      }
    ],
    "format": {
      "filename": "./wave-files//PinkPanther30.wav",
      "nb_streams": 1,
      "nb_programs": 0,
      "nb_stream_groups": 0,
      "format_name": "wav",
      "format_long_name": "WAV / WAVE (Waveform Audio)",
      "duration": "30.000000",
      "size": "1323044",
      "bit_rate": "352811",
      "probe_score": 99
    }
  },
  {
    "streams": [
      {
        "index": 0,
        "codec_name": "pcm_s16le",
        "codec_long_name": "PCM signed 16-bit little-endian",
        "codec_type": "audio",
        "codec_tag_string": "[1][0][0][0]",
        "codec_tag": "0x0001",
        "sample_fmt": "s16",
        "sample_rate": "22050",
        "channels": 1,
        "bits_per_sample": 16,
        "initial_padding": 0,
        "r_frame_rate": "0/0",
        "avg_frame_rate": "0/0",
        "time_base": "1/22050",
        "duration_ts": 1323000,
        "duration": "60.000000",
        "bit_rate": "352800",
        "disposition": {
          "default": 0,
          "dub": 0,
          "original": 0,
          "comment": 0,
          "lyrics": 0,
          "karaoke": 0,
          "forced": 0,
          "hearing_impaired": 0,
          "visual_impaired": 0,
          "clean_effects": 0,
          "attached_pic": 0,
          "timed_thumbnails": 0,
          "non_diegetic": 0,
          "captions": 0,
          "descriptions": 0,
          "metadata": 0,
          "dependent": 0,
          "still_image": 0
        }
      }
    ],
    "format": {
      "filename": "./wave-files//PinkPanther60.wav",
      "nb_streams": 1,
      "nb_programs": 0,
      "nb_stream_groups": 0,
      "format_name": "wav",
      "format_long_name": "WAV / WAVE (Waveform Audio)",
      "duration": "60.000000",
      "size": "2646044",
      "bit_rate": "352805",
      "probe_score": 99
    }
  },
  {
    "streams": [
      {
        "index": 0,
        "codec_name": "pcm_s16le",
        "codec_long_name": "PCM signed 16-bit little-endian",
        "codec_type": "audio",
        "codec_tag_string": "[1][0][0][0]",
        "codec_tag": "0x0001",
        "sample_fmt": "s16",
        "sample_rate": "22050",
        "channels": 1,
        "bits_per_sample": 16,
        "initial_padding": 0,
        "r_frame_rate": "0/0",
        "avg_frame_rate": "0/0",
        "time_base": "1/22050",
        "duration_ts": 66150,
        "duration": "3.000000",
        "bit_rate": "352800",
        "disposition": {
          "default": 0,
          "dub": 0,
          "original": 0,
          "comment": 0,
          "lyrics": 0,
          "karaoke": 0,
          "forced": 0,
          "hearing_impaired": 0,
          "visual_impaired": 0,
          "clean_effects": 0,
          "attached_pic": 0,
          "timed_thumbnails": 0,
          "non_diegetic": 0,
          "captions": 0,
          "descriptions": 0,
          "metadata": 0,
          "dependent": 0,
          "still_image": 0
        }
      }
    ],
    "format": {
      "filename": "./wave-files//StarWars3.wav",
      "nb_streams": 1,
      "nb_programs": 0,
      "nb_stream_groups": 0,
      "format_name": "wav",
      "format_long_name": "WAV / WAVE (Waveform Audio)",
      "duration": "3.000000",
      "size": "132344",
      "bit_rate": "352917",
      "probe_score": 99
    }
  },
  {
    "streams": [
      {
        "index": 0,
        "codec_name": "pcm_s16le",
        "codec_long_name": "PCM signed 16-bit little-endian",
        "codec_type": "audio",
        "codec_tag_string": "[1][0][0][0]",
        "codec_tag": "0x0001",
        "sample_fmt": "s16",
        "sample_rate": "22050",
        "channels": 1,
        "bits_per_sample": 16,
        "initial_padding": 0,
        "r_frame_rate": "0/0",
        "avg_frame_rate": "0/0",
        "time_base": "1/22050",
        "duration_ts": 1323000,
        "duration": "60.000000",
        "bit_rate": "352800",
        "disposition": {
          "default": 0,
          "dub": 0,
          "original": 0,
          "comment": 0,
          "lyrics": 0,
          "karaoke": 0,
          "forced": 0,
          "hearing_impaired": 0,
          "visual_impaired": 0,
          "clean_effects": 0,
          "attached_pic": 0,
          "timed_thumbnails": 0,
          "non_diegetic": 0,
          "captions": 0,
          "descriptions": 0,
          "metadata": 0,
          "dependent": 0,
          "still_image": 0
        }
      }
    ],
    "format": {
      "filename": "./wave-files//StarWars60.wav",
      "nb_streams": 1,
      "nb_programs": 0,
      "nb_stream_groups": 0,
      "format_name": "wav",
      "format_long_name": "WAV / WAVE (Waveform Audio)",
      "duration": "60.000000",
      "size": "2646044",
      "bit_rate": "352805",
      "probe_score": 99
    }
  },
  {
    "streams": [
      {
        "index": 0,
        "codec_name": "pcm_s16le",
        "codec_long_name": "PCM signed 16-bit little-endian",
        "codec_type": "audio",
        "codec_tag_string": "[1][0][0][0]",
        "codec_tag": "0x0001",
        "sample_fmt": "s16",
        "sample_rate": "22050",
        "channels": 1,
        "bits_per_sample": 16,
        "initial_padding": 0,
        "r_frame_rate": "0/0",
        "avg_frame_rate": "0/0",
        "time_base": "1/22050",
        "duration_ts": 387574,
        "duration": "17.577052",
        "bit_rate": "352800",
        "disposition": {
          "default": 0,
          "dub": 0,
          "original": 0,
          "comment": 0,
          "lyrics": 0,
          "karaoke": 0,
          "forced": 0,
          "hearing_impaired": 0,
          "visual_impaired": 0,
          "clean_effects": 0,
          "attached_pic": 0,
          "timed_thumbnails": 0,
          "non_diegetic": 0,
          "captions": 0,
          "descriptions": 0,
          "metadata": 0,
          "dependent": 0,
          "still_image": 0
        }
      }
    ],
    "format": {
      "filename": "./wave-files//gettysburg.wav",
      "nb_streams": 1,
      "nb_programs": 0,
      "nb_stream_groups": 0,
      "format_name": "wav",
      "format_long_name": "WAV / WAVE (Waveform Audio)",
      "duration": "17.577052",
      "size": "775192",
      "bit_rate": "352820",
      "probe_score": 99
    }
  },
  {
    "streams": [
      {
        "index": 0,
        "codec_name": "pcm_s16le",
        "codec_long_name": "PCM signed 16-bit little-endian",
        "codec_type": "audio",
        "codec_tag_string": "[1][0][0][0]",
        "codec_tag": "0x0001",
        "sample_fmt": "s16",
        "sample_rate": "22050",
        "channels": 1,
        "bits_per_sample": 16,
        "initial_padding": 0,
        "r_frame_rate": "0/0",
        "avg_frame_rate": "0/0",
        "time_base": "1/22050",
        "duration_ts": 220568,
        "duration": "10.003084",
        "bit_rate": "352800",
        "disposition": {
          "default": 0,
          "dub": 0,
          "original": 0,
          "comment": 0,
          "lyrics": 0,
          "karaoke": 0,
          "forced": 0,
          "hearing_impaired": 0,
          "visual_impaired": 0,
          "clean_effects": 0,
          "attached_pic": 0,
          "timed_thumbnails": 0,
          "non_diegetic": 0,
          "captions": 0,
          "descriptions": 0,
          "metadata": 0,
          "dependent": 0,
          "still_image": 0
        }
      }
    ],
    "format": {
      "filename": "./wave-files//gettysburg10.wav",
      "nb_streams": 1,
      "nb_programs": 0,
      "nb_stream_groups": 0,
      "format_name": "wav",
      "format_long_name": "WAV / WAVE (Waveform Audio)",
      "duration": "10.003084",
      "size": "441180",
      "bit_rate": "352835",
      "probe_score": 99
    }
  },
  {
    "streams": [
      {
        "index": 0,
        "codec_name": "pcm_s16le",
        "codec_long_name": "PCM signed 16-bit little-endian",
        "codec_type": "audio",
        "codec_tag_string": "[1][0][0][0]",
        "codec_tag": "0x0001",
        "sample_fmt": "s16",
        "sample_rate": "22050",
        "channels": 1,
        "bits_per_sample": 16,
        "initial_padding": 0,
        "r_frame_rate": "0/0",
        "avg_frame_rate": "0/0",
        "time_base": "1/22050",
        "duration_ts": 421110,
        "duration": "19.097959",
        "bit_rate": "352800",
        "disposition": {
          "default": 0,
          "dub": 0,
          "original": 0,
          "comment": 0,
          "lyrics": 0,
          "karaoke": 0,
          "forced": 0,
          "hearing_impaired": 0,
          "visual_impaired": 0,
          "clean_effects": 0,
          "attached_pic": 0,
          "timed_thumbnails": 0,
          "non_diegetic": 0,
          "captions": 0,
          "descriptions": 0,
          "metadata": 0,
          "dependent": 0,
          "still_image": 0
        }
      }
    ],
    "format": {
      "filename": "./wave-files//preamble.wav",
      "nb_streams": 1,
      "nb_programs": 0,
      "nb_stream_groups": 0,
      "format_name": "wav",
      "format_long_name": "WAV / WAVE (Waveform Audio)",
      "duration": "19.097959",
      "size": "842264",
      "bit_rate": "352818",
      "probe_score": 99
    }
  },
  {
    "streams": [
      {
        "index": 0,
        "codec_name": "pcm_s16le",
        "codec_long_name": "PCM signed 16-bit little-endian",
        "codec_type": "audio",
        "codec_tag_string": "[1][0][0][0]",
        "codec_tag": "0x0001",
        "sample_fmt": "s16",
        "sample_rate": "22050",
        "channels": 1,
        "bits_per_sample": 16,
        "initial_padding": 0,
        "r_frame_rate": "0/0",
        "avg_frame_rate": "0/0",
        "time_base": "1/22050",
        "duration_ts": 211660,
        "duration": "9.599093",
        "bit_rate": "352800",
        "disposition": {
          "default": 0,
          "dub": 0,
          "original": 0,
          "comment": 0,
          "lyrics": 0,
          "karaoke": 0,
          "forced": 0,
          "hearing_impaired": 0,
          "visual_impaired": 0,
          "clean_effects": 0,
          "attached_pic": 0,
          "timed_thumbnails": 0,
          "non_diegetic": 0,
          "captions": 0,
          "descriptions": 0,
          "metadata": 0,
          "dependent": 0,
          "still_image": 0
        }
      }
    ],
    "format": {
      "filename": "./wave-files//preamble10.wav",
      "nb_streams": 1,
      "nb_programs": 0,
      "nb_stream_groups": 0,
      "format_name": "wav",
      "format_long_name": "WAV / WAVE (Waveform Audio)",
      "duration": "9.599093",
      "size": "423364",
      "bit_rate": "352836",
      "probe_score": 99
    }
  },
  {
    "streams": [
      {
        "index": 0,
        "codec_name": "pcm_u8",
        "codec_long_name": "PCM unsigned 8-bit",
        "codec_type": "audio",
        "codec_tag_string": "[1][0][0][0]",
        "codec_tag": "0x0001",
        "sample_fmt": "u8",
        "sample_rate": "22257",
        "channels": 1,
        "bits_per_sample": 8,
        "initial_padding": 0,
        "r_frame_rate": "0/0",
        "avg_frame_rate": "0/0",
        "time_base": "1/22257",
        "duration_ts": 91240,
        "duration": "4.099384",
        "bit_rate": "178056",
        "disposition": {
          "default": 0,
          "dub": 0,
          "original": 0,
          "comment": 0,
          "lyrics": 0,
          "karaoke": 0,
          "forced": 0,
          "hearing_impaired": 0,
          "visual_impaired": 0,
          "clean_effects": 0,
          "attached_pic": 0,
          "timed_thumbnails": 0,
          "non_diegetic": 0,
          "captions": 0,
          "descriptions": 0,
          "metadata": 0,
          "dependent": 0,
          "still_image": 0
        }
      }
    ],
    "format": {
      "filename": "./wave-files//taunt.wav",
      "nb_streams": 1,
      "nb_programs": 0,
      "nb_stream_groups": 0,
      "format_name": "wav",
      "format_long_name": "WAV / WAVE (Waveform Audio)",
      "duration": "4.099384",
      "size": "91284",
      "bit_rate": "178141",
      "probe_score": 99
    }
  }
]
